<svg xmlns="http://www.w3.org/2000/svg" viewBox="0 0 64 64">
  <!-- Neon green server rack icon -->
  <rect x="8" y="4" width="48" height="56" rx="2" fill="none" stroke="#39FF14" stroke-width="3"/>

  <!-- Server units -->
  <rect x="12" y="10" width="40" height="8" rx="1" fill="#39FF14" opacity="0.3"/>
  <circle cx="16" cy="14" r="1.5" fill="#39FF14"/>
  <circle cx="20" cy="14" r="1.5" fill="#39FF14"/>
  <rect x="24" y="12" width="24" height="4" rx="0.5" fill="none" stroke="#39FF14" stroke-width="1"/>

  <rect x="12" y="22" width="40" height="8" rx="1" fill="#39FF14" opacity="0.3"/>
  <circle cx="16" cy="26" r="1.5" fill="#39FF14"/>
  <circle cx="20" cy="26" r="1.5" fill="#39FF14"/>
  <rect x="24" y="24" width="24" height="4" rx="0.5" fill="none" stroke="#39FF14" stroke-width="1"/>

  <rect x="12" y="34" width="40" height="8" rx="1" fill="#39FF14" opacity="0.3"/>
  <circle cx="16" cy="38" r="1.5" fill="#39FF14"/>
  <circle cx="20" cy="38" r="1.5" fill="#39FF14"/>
  <rect x="24" y="36" width="24" height="4" rx="0.5" fill="none" stroke="#39FF14" stroke-width="1"/>

  <rect x="12" y="46" width="40" height="8" rx="1" fill="#39FF14" opacity="0.3"/>
  <circle cx="16" cy="50" r="1.5" fill="#39FF14"/>
  <circle cx="20" cy="50" r="1.5" fill="#39FF14"/>
  <rect x="24" y="48" width="24" height="4" rx="0.5" fill="none" stroke="#39FF14" stroke-width="1"/>
</svg>
